<?xml version="1.0" encoding="utf-8"?>
<!-- Generator: Adobe Illustrator 25.3.1, SVG Export Plug-In . SVG Version: 6.00 Build 0)  -->
<svg version="1.1" id="Слой_1" xmlns="http://www.w3.org/2000/svg" xmlns:xlink="http://www.w3.org/1999/xlink" x="0px" y="0px"
	 viewBox="0 0 120 120" style="enable-background:new 0 0 120 120;" xml:space="preserve">
<style type="text/css">
	.st0{fill:#009DE0;}
</style>
<g id="Слой_x0020_1">
	<g id="_2435603726080">
		<path class="st0" d="M80.4,63.8h-2.9v-38c0-1.8-0.9-2.6-2.7-2.6h-26c-1.7,0-2.6,0.9-2.6,2.6v13.4c0,17.7-2.9,22.4-5.8,24.5h-1.7
			c-1.8,0-2.6,0.8-2.6,2.6V79c0,1.8,0.8,2.6,2.6,2.6h2.7c1.8,0,2.6-0.8,2.6-2.6v-7.4H75V79c0,1.8,0.9,2.6,2.7,2.6h2.8
			c1.8,0,2.6-0.8,2.6-2.6V66.4C83.1,64.7,82.2,63.8,80.4,63.8z M69.4,31L69.4,31v32.9H50c2.2-3.6,4.2-9.9,4.2-24.5V31H69.4z"/>
		<path class="st0" d="M100.4,7.1C87.4,2.4,73.8,0,60,0l-0.5,0C45.8,0.1,32.2,2.5,19.3,7.2c-1.7,0.6-2.8,2.4-2.6,4.2l0,54.4
			c0,0.2,0,0.3,0,0.5c0,5.1,0.9,10.1,2.5,14.9c1.7,4.8,4.1,9.3,7.3,13.2c0.1,0.1,0.2,0.2,0.2,0.3c4.2,5.2,9,10,14.2,14.1
			c5.2,4.2,10.9,7.7,17,10.7c0.6,0.3,1.3,0.5,2,0.6h0.1h0c0.7,0,1.4-0.2,2-0.5c6-2.9,11.8-6.5,17-10.7c5.2-4.2,10-8.9,14.2-14.1
			c0.1-0.1,0.2-0.2,0.3-0.3c3.2-4,5.6-8.4,7.3-13.2c1.7-4.8,2.5-9.8,2.5-14.9l0-55.3C103.3,9.2,102.1,7.6,100.4,7.1L100.4,7.1z
			 M93.2,78.5L93.2,78.5c-1.3,3.8-3.3,7.4-5.8,10.6c-0.1,0.1-0.2,0.2-0.2,0.3c-3.9,4.8-8.3,9.3-13.1,13.1c-4.4,3.5-9.1,6.5-14,9
			c-4.9-2.5-9.6-5.5-14-9c-4.9-3.9-9.3-8.3-13.1-13.1c-0.1-0.1-0.2-0.2-0.2-0.2c-2.5-3.2-4.5-6.8-5.8-10.6c-1.3-3.8-2-7.8-2.1-11.8
			c0-0.2,0-0.3,0-0.5V13.9C36,10.1,47.7,8.1,59.5,8.1l0.5,0c12,0,23.9,1.9,35.2,5.8v52.5C95.2,70.5,94.5,74.6,93.2,78.5z"/>
	</g>
</g>
</svg>
